<svg width="392" height="340" viewBox="0 0 392 340" fill="none" xmlns="http://www.w3.org/2000/svg">
<path opacity="0.5" d="M277.445 0C282.552 9.55524e-05 287.568 1.34187 291.989 3.89031C296.411 6.43874 300.081 10.1039 302.631 14.517L384.115 155.517C386.66 159.922 388 164.916 388 170.001C388 175.085 386.66 180.079 384.115 184.484L302.631 325.484C300.081 329.897 296.41 333.562 291.989 336.11C287.568 338.658 282.551 340 277.445 340H114.555C109.448 340 104.432 338.658 100.011 336.11C95.5893 333.561 91.9188 329.896 89.3686 325.483L7.88534 184.483C5.3399 180.078 4 175.084 4 169.999C4 164.915 5.3399 159.921 7.88534 155.516L89.3686 14.516C91.9189 10.1031 95.5895 6.43813 100.011 3.88987C104.432 1.34162 109.448 -5.70474e-06 114.555 0L277.445 0Z" fill="#0010F1"/>
<path opacity="0.4" d="M269.204 14C274.303 14.0004 279.312 15.3382 283.728 17.8794C288.144 20.4206 291.813 24.0757 294.366 28.478L368.021 155.478C370.581 159.892 371.929 164.901 371.929 170C371.929 175.099 370.581 180.108 368.021 184.522L294.366 311.522C291.813 315.924 288.144 319.579 283.728 322.121C279.312 324.662 274.303 326 269.204 326H121.792C116.694 326 111.685 324.662 107.268 322.121C102.852 319.579 99.1831 315.924 96.63 311.522L22.9721 184.522C20.4123 180.108 19.0645 175.099 19.0645 170C19.0645 164.901 20.4123 159.892 22.9721 155.478L96.627 28.478C99.1804 24.0753 102.85 20.4199 107.267 17.8787C111.684 15.3375 116.693 13.9998 121.792 14L269.204 14Z" fill="#0010F1"/>
<path d="M260.344 28C265.466 28 270.496 29.3496 274.927 31.9122C279.357 34.4747 283.03 38.1593 285.575 42.593L350.134 155.093C352.651 159.479 353.975 164.446 353.975 169.5C353.975 174.554 352.651 179.521 350.134 183.907L285.575 296.407C283.03 300.841 279.357 304.525 274.927 307.088C270.496 309.65 265.466 311 260.344 311H131.656C126.535 311 121.505 309.65 117.074 307.088C112.644 304.525 108.97 300.841 106.426 296.407L41.8667 183.907C39.3496 179.521 38.0254 174.554 38.0254 169.5C38.0254 164.446 39.3496 159.479 41.8667 155.093L106.426 42.593C108.97 38.1593 112.644 34.4747 117.074 31.9122C121.505 29.3496 126.535 28 131.656 28L260.344 28Z" fill="#0010F1"/>
<g clip-path="url(#clip0_1380_1171)">
<path d="M162.299 228.701C155.888 223.658 149.048 218.825 144.376 212.016C134.539 200.007 126.967 186.107 121.791 171.498C118.661 161.997 117.589 151.812 113.552 142.68C109.335 136.045 114.279 128.798 121.546 126.69C124.778 126.067 130.466 123.015 123.6 125.199C117.443 129.713 116.85 121.096 123.162 120.55C127.47 119.979 129.056 116.454 127.581 113.281C122.955 110.263 138.795 106.952 130.824 102.45C122.527 93.4954 142.435 91.7714 137.523 101.943C136.348 109.764 151.439 100.507 147.935 109.54C151.495 113.879 161.263 110.53 161.018 116.613C166.203 116.969 167.983 121.329 172.845 121.664C177.892 123.943 187.033 125.735 188.748 131.419C183.745 135.379 172.162 123.238 171.602 134.202C173.116 150.401 172.73 167.088 178.654 182.513C181.457 191.852 188.254 199.203 194.389 206.478C200.262 213.602 208.216 218.62 216.325 222.841C223.435 226.195 231.102 228.417 238.854 229.815C241.996 227.411 247.546 218.473 252.447 222.239C252.684 226.479 242.719 231.096 251.98 230.627C257.422 228.985 261.193 234.831 265.673 229.556C269.8 234.445 282.826 226.435 279.891 236.427C275.918 238.99 270.127 237.442 266.15 240.968C259.594 237.691 254.374 243.895 247.112 243.113C239.051 244.557 230.847 245.138 222.675 245.15C209.265 244.092 195.572 243.646 182.816 238.976C175.627 236.888 168.615 232.794 162.299 228.701ZM173.623 233.611C180.64 236.642 187.502 239.841 195.194 240.808C207.395 242.502 219.996 245.116 232.24 242.734C226.699 240.233 220.968 243.706 215.448 240.946C208.827 242.369 201.72 240.58 194.986 239.699C187.333 236.29 179.071 233.947 171.904 229.517C162.944 226.246 176.535 233.714 178.955 234.321C184.553 237.497 172.798 232.691 171.137 231.371C166.448 228.74 165.851 229.29 170.674 231.96C171.646 232.528 172.605 233.126 173.623 233.611ZM160.27 224.174C167.071 226.694 160.239 219.393 157.127 219.815C155.746 217.42 151.852 215.906 154.599 214.621C149.659 216.337 149.422 208.098 147.102 209.277C141.873 207.626 145.067 201.779 138.838 198.185C138.269 194.401 132.651 191.121 130.862 185.415C130.071 182.492 124.512 174.104 127.926 181.911C130.832 189.426 135.944 195.867 140.201 202.295C143.502 208.416 147.407 214.819 153.421 218.637C155.451 220.584 157.407 223.563 160.27 224.174ZM140.682 202.664C140.918 201.637 141.925 204.887 140.682 202.664V202.664ZM168.417 227.192C166.25 226.341 169.922 226.517 168.417 227.192V227.192ZM172.106 228.538C170.421 229.579 171.724 226.68 172.106 228.538V228.538ZM176.728 230.465C173.335 229.143 178.925 228.369 176.728 230.465V230.465ZM184.647 234.879C180.369 234.136 185.984 232.906 184.647 234.879V234.879ZM169.441 224.278C165.025 224.247 172.853 222.067 169.441 224.278V224.278ZM172.906 226.006C171.672 226.53 172.807 224.84 172.906 226.006V226.006ZM190.228 236.818C193.013 238.577 206.493 240.67 198.053 237.54C196.637 237.837 182.403 233.512 190.228 236.818ZM162.729 215.399C158.403 214.105 162.458 214.231 162.729 215.399V215.399ZM170.79 220.104C166.435 218.973 172.892 218.637 170.79 220.104V220.104ZM177.574 224.261C172.691 223.121 180.588 223.126 177.574 224.261V224.261ZM159.445 211.826C162.712 214.332 172.627 212.149 164.449 210.331C160.73 208.348 152.346 206.991 158.061 211.526L159.445 211.826ZM182.171 225.696C176.461 224.371 183.534 223.378 182.171 225.696V225.696ZM175.266 220.209C183.254 222.467 168.546 215.153 173.293 219.376L174.347 219.853L175.266 220.209ZM189.111 228.211C182.275 227.167 196.678 228.283 189.111 228.211V228.211ZM156.535 207.449C154.669 207.566 156.237 206.039 156.535 207.449V207.449ZM201.91 235.391C199.442 237.287 202.112 232.846 201.91 235.391V235.391ZM169.45 215.356C167.085 215.3 168.989 214.015 169.45 215.356V215.356ZM157.252 206.564C151.302 204.651 161.595 206.302 157.252 206.564V206.564ZM142.802 197.225C138.077 193.481 142.26 195.141 142.802 197.225V197.225ZM180.735 221.298C179.94 220.39 180.361 221.495 180.735 221.298V221.298ZM204.343 235.787C203.057 236.311 204.27 234.398 204.343 235.787V235.787ZM178.646 219.14C174.94 218.597 179.072 217.351 178.646 219.14V219.14ZM161.057 207.991C155.876 205.807 164.29 207.647 161.057 207.991V207.991ZM190.809 226.479C185.899 225.507 195.848 224.484 190.809 226.479V226.479ZM175.335 215.976C181.139 216.723 168.427 212.024 174.059 215.554L175.335 215.976ZM195.507 228.379C200.93 225.142 199.141 235.967 204.705 229.295C210.19 225.288 199.966 234.247 206.725 230.009C211.618 226.736 218.84 231.56 223.403 233.13C226.682 232.971 229.873 235.967 233.239 234.144C239.714 232.398 220.573 231.556 225.59 228.464C219.666 230.189 215.29 226.41 212.374 222.613C205.727 221.078 198.044 217.682 194.725 211.796C193.371 209.591 196.678 212.11 193.556 208.499C189.554 204.939 187.555 200.892 184.867 196.563C181.655 194.852 181.277 189.809 180.954 196.396C180.981 192.238 177.076 189.44 176.122 190.601C176.105 186.597 180.301 188.605 177.364 185.643C176.733 181.494 174.652 177.169 174.028 172.483C173.057 170.226 173.89 165.389 170.709 170.501C169.552 175.905 170.327 163.863 172.128 167.831C174.493 163.781 171.276 164.258 171.147 164.817C172.687 161.4 172.124 156.549 170.744 158.398C171.565 154.773 172.042 145.062 169.519 146.786C171.049 142.994 172.421 129.441 165.773 134.61C163.082 134.648 158.418 135.587 156.216 136.683C163.125 140.492 155.519 138.058 152.703 137.452C152.338 140.977 149.552 139.455 146.069 139.489C151.633 140.177 143.36 145.177 140.176 143.234C136.031 145.212 143.748 150.156 140.257 151.686C140.688 153.987 133.911 150.853 134.44 156.176C130.42 154.481 133.89 162.487 135.902 159.779C142.742 161.632 140.717 165.849 140.889 169.86C139.775 172.194 135.386 164.37 139.913 164.732C136.34 158.931 135.962 162.633 132.995 165.329C132.307 165.523 140.562 169.163 135.382 170.961C139.939 171.666 140.072 175.656 141.001 178.18C143.74 181.034 143.176 175.027 146.457 178.459C144.38 175.402 135.467 169.846 142.644 171.628C142.604 168.554 141.345 166.072 143.546 166.132C145.726 162.19 141.263 175.858 146.173 170.845C147.531 170.252 147.871 166.898 150.313 171.163C153.86 174.655 151.595 177.181 146.59 173.983C147.484 177.023 153.284 178.106 152.192 182.857C153.348 187.036 154.965 185.497 156.375 185.256C157.479 189.315 158.109 186.331 158.16 184.396C163.22 185.481 162.033 188.472 163.619 190.562C167.106 192.135 158.628 179.895 164.613 186.881C170.911 192.569 166.977 194.942 161.324 194.031C164.901 193.742 166.052 198.869 170.529 198.688C174.609 200.631 177.374 208.086 170.34 204.981C167.902 202.78 159.264 200.067 166.32 204.251C172.829 207.269 178.005 209.07 184.286 212.859C188.78 216.066 190.722 219.741 192.425 220.468C188.646 222.273 181.041 219.028 186.69 218.035C183.164 217.394 179.201 215.61 182.575 220C185.447 222.399 192.743 222.144 194.055 222.415C192.946 224.858 191.042 225.052 194.098 225.24C190.688 227.059 195.194 227.343 195.507 228.379ZM188.534 208.684C186.458 206.513 185.92 202.45 188.164 205.983C189.317 206.447 191.85 212.627 188.534 208.684ZM211.248 223.112C211.286 224.096 212.542 223.027 211.248 223.112V223.112ZM185.259 203.361C185.176 200.08 186.006 205.893 185.259 203.361V203.361ZM183.001 200.326C180.388 195.283 186.29 201.753 183.001 200.326V200.326ZM155.64 181.443C156.396 184.065 157.175 181.034 155.64 181.443V181.443ZM177.416 193.244C178.358 189.706 178.522 196.212 177.416 193.244V193.244ZM162.033 182.547C160.95 180.596 164.299 184.379 162.033 182.547V182.547ZM175.232 186.778C172.76 181.241 176.986 183.751 175.783 187.685L175.232 186.778ZM152.467 171.597C151.363 169.779 149.535 164.447 150.124 162.818C150.653 165.471 155.761 174.229 152.626 166.447C149.165 159.925 156.767 168.562 157.549 170.192C157.915 171.808 155.412 169.749 157.106 173.545C154.015 169.224 155.283 175.931 152.467 171.597ZM145.433 166.748C145.721 162.521 147.042 169.645 145.433 166.748V166.748ZM148.598 167.839C150.107 164.65 151.156 172.285 148.598 167.839V167.839ZM140.984 161.95C138.365 159.344 136.469 156.945 141.108 160.332C142.892 160.401 137.136 154.877 141.538 158.578C146.164 159.422 143.821 166.168 140.984 161.95ZM144.982 161.847C145.79 163.33 146.505 160.338 144.982 161.847V161.847ZM147.445 162.633C145.136 158.312 150.244 164.448 147.445 162.633V162.633ZM142.553 157.96C134.939 151.179 152.119 161.502 143.796 159.215L142.553 157.96ZM164.372 170.634C161.074 168.66 163.495 156.726 164.622 164.886C167.825 163.849 164.444 169.104 166.831 169.052C166.457 172.366 165.387 173.559 164.372 170.634ZM172.442 175.406C172.764 171.808 173.121 177.866 172.442 175.406V175.406ZM171.041 174.017C171.075 175.828 171.402 172.483 171.041 174.017V174.017ZM144.044 155.733C139.152 148.982 158.262 162.559 147.179 157.444C146.022 157.139 144.625 157.031 144.044 155.733ZM159.587 163.971C159.123 158.287 160.619 164.911 159.587 163.971V163.971ZM171.384 171.541C171.454 173.683 172.295 168.304 171.384 171.541V171.541ZM144.797 153.157C147.704 152.534 156.844 158.261 148.451 154.791C147.519 153.759 145.528 154.228 144.797 153.157ZM169.763 165.6C170.074 159.787 171.501 162.13 169.776 166.434L169.763 165.6ZM146.959 151.133C148.146 149.395 143.811 143.278 147.582 148.939C149.213 150.233 152.298 151.107 149.573 151.652C153.859 155.432 148.529 152.676 146.959 151.133ZM168.528 163.786C169.252 167.663 169.346 157.165 168.528 163.786V163.786ZM144.483 145.019C144.964 146.226 145.39 144.631 144.483 145.019V145.019ZM150.111 148.368C151.559 145.328 152.78 151.756 150.111 148.368V148.368ZM165.979 157.194C165.966 156.029 166.28 158.893 165.979 157.194V157.194ZM165.059 155.161C162.858 149.727 167.11 158.037 165.059 155.161V155.161ZM163.708 151.596C163.34 149.352 164.964 154.417 163.708 151.596V151.596ZM165.91 148.02C164.397 145.357 167.82 136.282 168.202 141.91C166.607 146.296 167.742 148.747 168.851 142.865C170.907 138.239 168.408 152.001 165.91 148.02ZM168.171 134.524C168.318 135.499 168.83 133.715 168.171 134.524V134.524ZM164.393 208.958C163.499 208.176 164.509 209.454 164.393 208.958V208.958ZM172.175 212.893C176.504 214.007 176.483 212.222 172.569 211.688C170.467 209.733 163.825 207.656 169.771 211.448C170.163 212.446 171.406 212.419 172.175 212.893ZM156.809 202.685C159.191 204.466 165.79 207.724 160.205 203.366C162.088 201.176 156.602 200.012 158.422 198.546C153.791 195.712 154.766 195.966 158.013 196.057C152.45 193.567 158.817 193.756 158.516 192.48C156.371 192.058 147.858 188.695 152.866 192.755C147.776 190.161 151.653 193.722 150.115 193.348C144.907 191.929 154.75 197.312 149.289 195.975C152.273 198.339 157.325 202.037 150.549 198.477C149.659 199.762 155.4 201.71 156.809 202.685ZM164.947 207.363C160.093 203.464 174.84 210.55 164.947 207.363V207.363ZM206.608 232.6C205.258 234.277 206.737 230.636 206.608 232.6V232.6ZM210.89 234.402C213.173 232.193 210.985 237.927 214.674 233.861C214.712 230.949 214.562 229.231 210.435 232.768C209.295 233.401 208.788 236.078 210.89 234.402ZM142.918 191.715C138.003 188.971 142.216 188.959 142.918 191.715V191.715ZM147.487 194.711C141.429 192.162 145.789 191.895 147.487 194.711V194.711ZM173.503 210.399C176.045 212.657 185.168 212.055 176.587 210.679C175.318 208.8 168.521 209.252 173.503 210.399ZM209.261 232.486C205.473 233.948 213.169 229.205 209.261 232.486V232.486ZM217.391 238.07C215.706 238.53 217.416 237.017 217.391 238.07V238.07ZM217.404 236.595C213.212 236.866 221.733 232.013 217.404 236.595V236.595ZM131.67 182.299C127.982 177.036 129.379 174.671 125.819 170.372C125.143 167.083 119.714 159.628 123.012 167.525C126.03 172.148 126.923 179.301 131.67 182.299ZM216.045 235.138C212.778 232.898 224.013 229.991 216.045 235.138V235.138ZM222.125 237.519C219.601 236.805 226.115 234.096 222.125 237.519V237.519ZM141.563 185.896C138.614 185.677 142.703 184.198 141.563 185.896V185.896ZM220.856 235.894C224.717 233.405 219.966 233.787 220.156 236.121L220.856 235.894ZM168.455 202.866C166.414 203.008 168.323 201.181 168.455 202.866V202.866ZM171.693 204.728C170.111 205.055 170.661 202.647 171.693 204.728V204.728ZM227.052 237.576C232 234.006 224.055 236.891 226.015 238.255L227.052 237.576ZM225.156 236.66C220.903 238.156 229.188 233.284 225.156 236.66V236.66ZM234.837 243.104C231.549 242.519 237.542 241.294 234.837 243.104V243.104ZM144.044 184.671C147.668 185.483 158.537 193.601 152.127 185.235C148.843 184.263 150.812 176.236 147.462 177.655C149.711 181.412 149.31 183.007 144.589 180.643C138.661 177.745 141.258 182.075 142.42 183.27C140.836 183.631 144.509 184.642 144.044 184.671ZM127.521 171.624C128.17 168.936 121.541 156.85 124.392 165.565C125.419 167.393 125.312 170.853 127.521 171.624ZM157.849 190.321C155.979 188.76 157.759 190.097 157.849 190.321V190.321ZM162.445 191.392C157.364 190.235 162.445 188.545 162.445 191.392V191.392ZM202.3 216.513C199.296 216.47 201.54 214.569 202.3 216.513V216.513ZM204.214 217.909C203.108 218.121 203.929 216.822 204.214 217.909V217.909ZM220.009 227.863C218.113 227.717 221.527 226.741 220.009 227.863V227.863ZM135.772 173.73C131.115 172.53 140.118 172.048 135.772 173.73V173.73ZM198.791 213.429C196.019 214.131 198.741 210.618 198.791 213.429V213.429ZM134.056 169.727C131.472 169.109 136.847 168.786 134.056 169.727V169.727ZM142.157 173.652C141.301 174.005 142.109 172.728 142.157 173.652V173.652ZM240.977 234.251C244.567 233.525 252.749 236.079 254.068 233.302C249.709 233.194 238.991 230.223 238.483 234.006L239.438 234.157L240.977 234.251ZM144.731 174.301C142.509 174.194 144.797 171.451 144.731 174.301V174.301ZM123.434 159.524C119.753 158.703 122.467 154.094 123.434 159.524V159.524ZM128.511 160.801C123.863 159.232 128.576 159.056 128.511 160.801V160.801ZM131.413 162.229C130.575 161.549 130.76 163.083 131.413 162.229V162.229ZM149.681 173.944C147.643 173.36 150.541 173.153 149.681 173.944V173.944ZM129.483 159.013C123.597 158.398 128.989 154.911 129.483 159.013V159.013ZM119.065 152.254C118.05 152.967 118.918 150.362 119.065 152.254V152.254ZM120.617 151.086C119.284 151.368 120.363 148.84 120.617 151.086V151.086ZM129.174 156.192C132.794 154.773 122.582 153.251 128.434 155.926L129.174 156.192ZM243.726 226.951C240.785 226.294 246.042 224.828 243.726 226.951V226.951ZM257.565 234.123C255.226 234.484 258.494 231.38 257.565 234.123V234.123ZM130.048 151.708C127.177 152.237 130.432 149.052 130.048 151.708V151.708ZM117.87 143.549C117.216 139.8 117.306 133.217 123.562 135.44C115.212 137.099 129.345 145.822 127.56 138.934C131.073 139.107 134.431 136.859 132.586 140.267C139.508 139.506 144.303 133.505 150.987 134.348C156.193 133.656 161.886 133.135 167.497 131.037C172.11 130.706 176.55 125.74 174.024 122.795C167.734 122.263 161.146 123.049 154.195 124.434C146.491 126.033 139.492 129.076 131.718 130.384C124.137 131.403 133.24 133.187 131.068 133.586C127.116 134.958 135.785 135.882 130.556 137.331C127.328 136.717 123.966 135.608 125.346 132.202C118.088 133.148 111.708 136.157 117.444 143.543L117.87 143.547L117.87 143.549ZM135.364 134.64C137.062 128.372 144.478 139.8 138.15 135.474C137.397 134.906 136.15 134.446 135.364 134.64ZM135.694 131.6C136.997 132.628 138.15 129.773 135.694 131.6V131.6ZM138.811 131.652C139.036 128.767 145.954 133.178 139.951 132.688L138.811 131.652ZM143.076 129.937C143.529 131.553 144.637 128.113 143.076 129.937V129.937ZM144.169 129.206C146.766 126.089 158.859 127.215 150.007 128.9C147.633 127.111 145.815 129.953 144.169 129.206ZM159.955 126.772C159.565 118.254 167.802 129.795 159.955 126.772V126.772ZM164.436 126.746C166.073 122.456 170.794 125.023 165.197 125.882C165.317 126.342 165.029 128.101 164.436 126.746ZM128.283 149.507C123.089 146.907 133.175 146.51 128.283 149.507V149.507ZM131.902 150.509C128.17 149.769 133.618 148.686 131.902 150.509V150.509ZM121.24 142.946C117.93 142.13 124.035 140.796 121.24 142.946V142.946ZM265.733 233.34C263.596 234.462 265.815 230.846 265.733 233.34V233.34ZM251.051 223.318C249.164 223.568 251.467 220.451 251.051 223.318V223.318ZM269.77 234.308C273.679 234.321 281.614 233.09 273.11 233.095C271.773 233.302 265.333 233.259 269.77 234.308ZM135.085 148.749C138.249 148.534 140.033 145.262 134.469 145.448C125.849 144.558 142.074 148.402 133.365 147.301C132.196 148.075 135.015 148.964 135.085 148.749ZM137.87 150.16C136.889 151.239 137.539 148.131 137.87 150.16V150.16ZM141.176 141.346C139.276 140.89 142.548 139.643 141.176 141.346V141.346ZM130.651 123.758C136.301 121.841 144.022 119.683 146.689 124.705C143.975 121.442 145.593 118.226 148.155 123.002C151.779 127.831 153.592 120.806 151.236 119.184C153.924 122.52 156.976 124.099 153.033 119.396C157.32 114.24 144.456 120.07 141.533 120.01C140.128 120.641 127.009 123.355 130.651 123.758ZM133.962 117.422C137.183 114.993 145.101 118.871 140.02 115.005C139.521 114.567 128.894 117.938 133.962 117.422ZM145.704 117.907C149.47 118.002 144.079 112.843 148.567 115.181C147.832 112.774 143.339 112.323 141.143 111.36C139.9 113.561 143.669 117.938 145.704 117.907ZM136.021 107.249C133.734 108.148 137.324 105.482 136.021 107.249V107.249ZM140.821 108.396C146.894 107.593 139.271 105.783 139.594 108.332L140.821 108.396ZM131.859 101.389C127.581 95.8038 139.903 102.326 135.556 96.4784C131.898 93.5684 128.385 99.7593 131.859 101.389ZM186.74 130.947C188.702 127.472 178.645 126.261 185.42 129.716C186.043 129.924 185.903 131.187 186.74 130.947Z" fill="white"/>
</g>
<defs>
<clipPath id="clip0_1380_1171">
<rect width="168.75" height="150" fill="white" transform="translate(112 95)"/>
</clipPath>
</defs>
</svg>